<svg width="118" height="74" viewBox="0 0 118 74" fill="none" xmlns="http://www.w3.org/2000/svg">
<path d="M26.6123 50.0502H41.5847C42.437 50.0502 43.2202 49.5895 43.6348 48.8524L51.121 35.8839C51.5357 35.1468 51.5357 34.2485 51.121 33.5114L43.6348 20.566C43.2202 19.8289 42.437 19.3682 41.5847 19.3682H26.6123C25.76 19.3682 24.9768 19.8289 24.5622 20.566L21.6138 25.6566" stroke="white" stroke-width="3.91587" stroke-miterlimit="10" stroke-linecap="round"/>
<path d="M29.5375 40.9282H14.565C13.7128 40.9282 12.9296 41.3889 12.515 42.126L5.02874 55.0945C4.61412 55.8316 4.61412 56.7299 5.02874 57.467L12.515 70.4125C12.9296 71.1496 13.7128 71.6103 14.565 71.6103H29.5375C30.3898 71.6103 31.173 71.1496 31.5876 70.4125L39.0738 57.444" stroke="white" stroke-width="3.91587" stroke-miterlimit="10" stroke-linecap="round"/>
<path d="M34.8358 13.5173L28.8698 3.1978C28.4552 2.46069 27.672 2 26.8197 2H11.8473C10.995 2 10.2118 2.46069 9.79719 3.1978L2.31097 16.1663C1.89634 16.9034 1.89634 17.8017 2.31097 18.5388L9.79719 31.5073C10.2118 32.2444 10.995 32.7051 11.8473 32.7051H26.8197" stroke="white" stroke-width="3.91587" stroke-miterlimit="10" stroke-linecap="round"/>
<path d="M51.605 22.3394V2.02295H60.3811C62.6385 2.02295 64.4122 2.48364 65.6561 3.38199C66.8999 4.28034 67.5219 5.57027 67.5219 7.25179C67.5219 8.35745 67.2685 9.27883 66.7617 10.039C66.255 10.7991 65.5409 11.375 64.6656 11.7435C63.7903 12.1351 62.8228 12.3194 61.7863 12.3194L62.27 11.6284C63.5599 11.6284 64.6886 11.8357 65.633 12.2273C66.5774 12.6188 67.2915 13.2177 67.8213 14.0009C68.3511 14.7841 68.6045 15.7515 68.6045 16.9263C68.6045 18.6539 67.9595 19.9899 66.6926 20.9343C65.4257 21.8787 63.5138 22.3625 60.957 22.3625H51.605V22.3394ZM53.7472 20.5658H60.9109C62.6846 20.5658 64.0667 20.2663 65.0111 19.6444C65.9555 19.0455 66.4392 18.055 66.4392 16.719C66.4392 15.406 65.9555 14.4386 65.0111 13.8397C64.0667 13.2408 62.7076 12.9183 60.9109 12.9183H53.5168V11.1446H60.2199C61.8554 11.1446 63.0992 10.8452 63.9976 10.2233C64.8959 9.60132 65.3566 8.67994 65.3566 7.4591C65.3566 6.21524 64.8959 5.29386 63.9976 4.69496C63.0992 4.09606 61.8323 3.77358 60.2199 3.77358H53.7472V20.5658Z" fill="white" stroke="white" stroke-linejoin="round"/>
<path d="M79.523 22.4774C77.9336 22.4774 76.5516 22.155 75.3538 21.4869C74.156 20.8189 73.2116 19.8976 72.5435 18.7228C71.8755 17.548 71.53 16.212 71.53 14.6918C71.53 13.1715 71.8525 11.8585 72.4975 10.6837C73.1424 9.53202 74.0408 8.61064 75.1695 7.94263C76.2982 7.27463 77.5651 6.95215 78.9932 6.95215C80.4214 6.95215 81.6883 7.27463 82.817 7.9196C83.9226 8.56457 84.7979 9.48595 85.4429 10.6377C86.0879 11.8124 86.4103 13.1484 86.4103 14.6918C86.4103 14.7839 86.4104 14.8991 86.3873 14.9912C86.3873 15.1064 86.3643 15.1985 86.3643 15.3137H73.0964V13.7704H85.2586L84.4524 14.3693C84.4524 13.2636 84.2221 12.2731 83.7383 11.4209C83.2546 10.5686 82.6096 9.87754 81.8034 9.39381C80.9972 8.91008 80.0528 8.65671 78.9932 8.65671C77.9567 8.65671 77.0122 8.91008 76.183 9.39381C75.3538 9.87754 74.7088 10.5455 74.2481 11.4209C73.7874 12.2962 73.5571 13.2867 73.5571 14.4153V14.7378C73.5571 15.8896 73.8104 16.9261 74.3172 17.8014C74.824 18.6767 75.538 19.3678 76.4594 19.8515C77.3808 20.3352 78.4174 20.5886 79.6152 20.5886C80.5365 20.5886 81.4119 20.4274 82.2181 20.1049C83.0243 19.7824 83.7153 19.2756 84.2912 18.5846L85.4429 19.9206C84.7749 20.7268 83.9226 21.3487 82.9091 21.7864C81.8495 22.2701 80.7438 22.4774 79.523 22.4774Z" fill="white" stroke="white" stroke-linejoin="round"/>
<path d="M61.9937 33.9723V32.2677H71.4378V33.9723H61.9937ZM69.1804 47.6548C67.7523 47.6548 66.6466 47.2632 65.8635 46.5031C65.0803 45.7199 64.7117 44.6373 64.7117 43.2322V28.9277H66.7618V43.117C66.7618 44.0154 66.9922 44.6834 67.4528 45.1671C67.9135 45.6508 68.5585 45.9042 69.4108 45.9042C70.3091 45.9042 71.0693 45.6508 71.6682 45.121L72.4053 46.5952C71.9907 46.9638 71.5069 47.2402 70.9311 47.4014C70.3782 47.5627 69.8024 47.6548 69.1804 47.6548Z" fill="white" stroke="white" stroke-linejoin="round"/>
<path d="M83.9454 32.1064C85.1893 32.1064 86.2719 32.3367 87.2163 32.8204C88.1607 33.3042 88.8978 34.0182 89.4276 34.9857C89.9574 35.9531 90.2339 37.174 90.2339 38.6482V47.4934H88.1838V38.8325C88.1838 37.22 87.7922 36.0222 86.986 35.193C86.1798 34.3638 85.0511 33.9491 83.5999 33.9491C82.5173 33.9491 81.5729 34.1564 80.7666 34.5941C79.9604 35.0318 79.3385 35.6537 78.9009 36.4829C78.4632 37.3122 78.2559 38.3027 78.2559 39.4544V47.4704H76.2058V25.9331H78.2559V36.4138L77.8413 35.6307C78.325 34.525 79.1082 33.6727 80.1678 33.0277C81.2043 32.4289 82.4712 32.1064 83.9454 32.1064Z" fill="white" stroke="white" stroke-linejoin="round"/>
<path d="M102.258 47.6547C100.669 47.6547 99.2864 47.3322 98.0886 46.6642C96.8908 45.9962 95.9464 45.0748 95.2784 43.9001C94.6104 42.7253 94.2649 41.3893 94.2649 39.869C94.2649 38.3487 94.5874 37.0358 95.2323 35.861C95.8773 34.7093 96.7757 33.7879 97.9044 33.1199C99.033 32.4519 100.3 32.1294 101.728 32.1294C103.156 32.1294 104.423 32.4519 105.552 33.0968C106.657 33.7418 107.533 34.6632 108.178 35.8149C108.823 36.9897 109.145 38.3257 109.145 39.869C109.145 39.9611 109.145 40.0763 109.122 40.1685C109.122 40.2836 109.099 40.3758 109.099 40.4909H95.8312V38.9476H107.993L107.187 39.5465C107.187 38.4409 106.957 37.4504 106.473 36.5981C105.989 35.7458 105.345 35.0548 104.538 34.5711C103.732 34.0873 102.788 33.834 101.728 33.834C100.692 33.834 99.7471 34.0873 98.9179 34.5711C98.0886 35.0548 97.4437 35.7228 96.983 36.5981C96.5223 37.4734 96.2919 38.4639 96.2919 39.5926V39.9151C96.2919 41.0668 96.5453 42.1034 97.0521 42.9787C97.5588 43.854 98.2729 44.545 99.1943 45.0287C100.116 45.5125 101.152 45.7658 102.35 45.7658C103.271 45.7658 104.147 45.6046 104.953 45.2821C105.759 44.9596 106.45 44.4529 107.026 43.7618L108.178 45.0978C107.51 45.9041 106.657 46.526 105.644 46.9636C104.584 47.4243 103.479 47.6547 102.258 47.6547Z" fill="white" stroke="white" stroke-linejoin="round"/>
<path d="M50.4534 71.4493V51.1328H59.2295C61.4869 51.1328 63.2606 51.5935 64.5045 52.4918C65.7483 53.4132 66.3702 54.6801 66.3702 56.3617C66.3702 57.4673 66.1169 58.3887 65.6101 59.1488C65.1033 59.909 64.3893 60.4848 63.514 60.8534C62.6386 61.245 61.6712 61.4293 60.6346 61.4293L61.1184 60.7382C62.4083 60.7382 63.537 60.9455 64.4814 61.3371C65.4258 61.7287 66.1399 62.3276 66.6697 63.1108C67.1995 63.894 67.4529 64.8614 67.4529 66.0362C67.4529 67.7638 66.8079 69.0998 65.541 70.0442C64.2741 70.9886 62.3622 71.4723 59.8054 71.4723H50.4534V71.4493ZM52.6186 69.6756H59.7824C61.556 69.6756 62.9381 69.3762 63.8825 68.7542C64.8269 68.1553 65.3107 67.1649 65.3107 65.8289C65.3107 64.5159 64.8269 63.5484 63.8825 62.9495C62.9381 62.3506 61.5791 62.0282 59.7824 62.0282H52.3652V60.2545H59.0683C60.7037 60.2545 61.9476 59.955 62.846 59.3331C63.7443 58.7112 64.205 57.7898 64.205 56.569C64.205 55.3251 63.7443 54.4037 62.846 53.8048C61.9476 53.2059 60.6807 52.8834 59.0683 52.8834H52.5956V69.6756H52.6186Z" fill="white" stroke="white" stroke-linejoin="round"/>
<path d="M78.2102 71.5874C76.9202 71.5874 75.7915 71.3571 74.8241 70.8503C73.8566 70.3666 73.0965 69.6525 72.5667 68.6621C72.0369 67.6946 71.7605 66.4738 71.7605 65.0226V56.1773H73.8106V64.7923C73.8106 66.4277 74.2022 67.6485 75.0084 68.4547C75.8146 69.284 76.9433 69.6986 78.3944 69.6986C79.454 69.6986 80.3754 69.4913 81.1586 69.0536C81.9418 68.616 82.5407 67.9941 82.9553 67.1418C83.3699 66.3125 83.5772 65.3221 83.5772 64.1473V56.1543H85.6273V71.4032H83.6924V67.2339L84.0149 67.9941C83.5312 69.1227 82.771 69.9981 81.7575 70.62C80.744 71.288 79.5692 71.5874 78.2102 71.5874Z" fill="white" stroke="white" stroke-linejoin="round"/>
<path d="M89.7502 71.4495V70.0904L99.9085 57.2372L100.346 57.9282H89.9345V56.2236H101.982V57.5596L91.8464 70.459L91.3166 69.768H102.166V71.4725H89.7502V71.4495Z" fill="white" stroke="white" stroke-linejoin="round"/>
<path d="M104.584 71.4495V70.0904L114.743 57.2372L115.18 57.9282H104.769V56.2236H116.816V57.5596L106.681 70.459L106.151 69.768H117V71.4725H104.584V71.4495Z" fill="white" stroke="white" stroke-linejoin="round"/>
</svg>
