<svg width="118" height="74" viewBox="0 0 118 74" fill="none" xmlns="http://www.w3.org/2000/svg">
<path d="M26.6123 50.0502H41.5847C42.437 50.0502 43.2202 49.5895 43.6348 48.8524L51.121 35.8839C51.5357 35.1468 51.5357 34.2485 51.121 33.5114L43.6348 20.566C43.2202 19.8289 42.437 19.3682 41.5847 19.3682H26.6123C25.76 19.3682 24.9768 19.8289 24.5622 20.566L21.6138 25.6566" stroke="#010561" stroke-width="3.5" stroke-miterlimit="10" stroke-linecap="round"/>
<path d="M29.5375 40.9282H14.565C13.7128 40.9282 12.9296 41.3889 12.515 42.126L5.02874 55.0945C4.61412 55.8316 4.61412 56.7299 5.02874 57.467L12.515 70.4125C12.9296 71.1496 13.7128 71.6103 14.565 71.6103H29.5375C30.3898 71.6103 31.173 71.1496 31.5876 70.4125L39.0738 57.444" stroke="#010561" stroke-width="3.5" stroke-miterlimit="10" stroke-linecap="round"/>
<path d="M34.8358 13.5173L28.8698 3.1978C28.4552 2.46069 27.672 2 26.8197 2H11.8473C10.995 2 10.2118 2.46069 9.79719 3.1978L2.31097 16.1663C1.89634 16.9034 1.89634 17.8017 2.31097 18.5388L9.79719 31.5073C10.2118 32.2444 10.995 32.7051 11.8473 32.7051H26.8197" stroke="#010561" stroke-width="3.5" stroke-miterlimit="10" stroke-linecap="round"/>
<path d="M51.605 22.3394V2.02295H60.3811C62.6385 2.02295 64.4122 2.48364 65.6561 3.38199C66.8999 4.28034 67.5219 5.57027 67.5219 7.25179C67.5219 8.35745 67.2685 9.27883 66.7617 10.039C66.255 10.7991 65.5409 11.375 64.6656 11.7435C63.7903 12.1351 62.8228 12.3194 61.7863 12.3194L62.27 11.6284C63.5599 11.6284 64.6886 11.8357 65.633 12.2273C66.5774 12.6188 67.2915 13.2177 67.8213 14.0009C68.3511 14.7841 68.6045 15.7515 68.6045 16.9263C68.6045 18.6539 67.9595 19.9899 66.6926 20.9343C65.4257 21.8787 63.5138 22.3625 60.957 22.3625H51.605V22.3394ZM53.7472 20.5658H60.9109C62.6846 20.5658 64.0667 20.2663 65.0111 19.6444C65.9555 19.0455 66.4392 18.055 66.4392 16.719C66.4392 15.406 65.9555 14.4386 65.0111 13.8397C64.0667 13.2408 62.7076 12.9183 60.9109 12.9183H53.5168V11.1446H60.2199C61.8554 11.1446 63.0992 10.8452 63.9976 10.2233C64.8959 9.60132 65.3566 8.67994 65.3566 7.4591C65.3566 6.21524 64.8959 5.29386 63.9976 4.69496C63.0992 4.09606 61.8323 3.77358 60.2199 3.77358H53.7472V20.5658Z" fill="#010561" stroke="#010561" stroke-linejoin="round"/>
<path d="M79.5228 22.4774C77.9334 22.4774 76.5513 22.155 75.3535 21.4869C74.1557 20.8189 73.2113 19.8976 72.5433 18.7228C71.8753 17.548 71.5298 16.212 71.5298 14.6918C71.5298 13.1715 71.8523 11.8585 72.4972 10.6837C73.1422 9.53202 74.0405 8.61064 75.1692 7.94263C76.2979 7.27463 77.5648 6.95215 78.993 6.95215C80.4211 6.95215 81.688 7.27463 82.8167 7.9196C83.9224 8.56457 84.7977 9.48595 85.4427 10.6377C86.0876 11.8124 86.4101 13.1484 86.4101 14.6918C86.4101 14.7839 86.4101 14.8991 86.3871 14.9912C86.3871 15.1064 86.364 15.1985 86.364 15.3137H73.0961V13.7704H85.2584L84.4522 14.3693C84.4522 13.2636 84.2218 12.2731 83.7381 11.4209C83.2544 10.5686 82.6094 9.87754 81.8032 9.39381C80.997 8.91008 80.0526 8.65671 78.993 8.65671C77.9564 8.65671 77.012 8.91008 76.1828 9.39381C75.3535 9.87754 74.7086 10.5455 74.2479 11.4209C73.7872 12.2962 73.5568 13.2867 73.5568 14.4153V14.7378C73.5568 15.8896 73.8102 16.9261 74.317 17.8014C74.8237 18.6767 75.5378 19.3678 76.4592 19.8515C77.3806 20.3352 78.4171 20.5886 79.6149 20.5886C80.5363 20.5886 81.4116 20.4274 82.2178 20.1049C83.024 19.7824 83.7151 19.2756 84.2909 18.5846L85.4427 19.9206C84.7747 20.7268 83.9224 21.3487 82.9089 21.7864C81.8493 22.2701 80.7436 22.4774 79.5228 22.4774Z" fill="#010561" stroke="#010561" stroke-linejoin="round"/>
<path d="M61.9937 33.9723V32.2677H71.4378V33.9723H61.9937ZM69.1804 47.6548C67.7523 47.6548 66.6466 47.2632 65.8635 46.5031C65.0803 45.7199 64.7117 44.6373 64.7117 43.2322V28.9277H66.7618V43.117C66.7618 44.0154 66.9922 44.6834 67.4528 45.1671C67.9135 45.6508 68.5585 45.9042 69.4108 45.9042C70.3091 45.9042 71.0693 45.6508 71.6682 45.121L72.4053 46.5952C71.9907 46.9638 71.5069 47.2402 70.9311 47.4014C70.3782 47.5627 69.8024 47.6548 69.1804 47.6548Z" fill="#010561" stroke="#010561" stroke-linejoin="round"/>
<path d="M83.9452 32.1064C85.189 32.1064 86.2717 32.3367 87.2161 32.8204C88.1605 33.3042 88.8976 34.0182 89.4274 34.9857C89.9572 35.9531 90.2336 37.174 90.2336 38.6482V47.4934H88.1835V38.8325C88.1835 37.22 87.7919 36.0222 86.9857 35.193C86.1795 34.3638 85.0508 33.9491 83.5997 33.9491C82.517 33.9491 81.5726 34.1564 80.7664 34.5941C79.9602 35.0318 79.3383 35.6537 78.9006 36.4829C78.463 37.3122 78.2556 38.3027 78.2556 39.4544V47.4704H76.2056V25.9331H78.2556V36.4138L77.841 35.6307C78.3247 34.525 79.1079 33.6727 80.1675 33.0277C81.2041 32.4289 82.471 32.1064 83.9452 32.1064Z" fill="#010561" stroke="#010561" stroke-linejoin="round"/>
<path d="M102.258 47.6547C100.668 47.6547 99.2862 47.3322 98.0884 46.6642C96.8906 45.9962 95.9462 45.0748 95.2782 43.9001C94.6102 42.7253 94.2646 41.3893 94.2646 39.869C94.2646 38.3487 94.5871 37.0358 95.2321 35.861C95.8771 34.7093 96.7754 33.7879 97.9041 33.1199C99.0328 32.4519 100.3 32.1294 101.728 32.1294C103.156 32.1294 104.423 32.4519 105.552 33.0968C106.657 33.7418 107.533 34.6632 108.178 35.8149C108.822 36.9897 109.145 38.3257 109.145 39.869C109.145 39.9611 109.145 40.0763 109.122 40.1685C109.122 40.2836 109.099 40.3758 109.099 40.4909H95.831V38.9476H107.993L107.187 39.5465C107.187 38.4409 106.957 37.4504 106.473 36.5981C105.989 35.7458 105.344 35.0548 104.538 34.5711C103.732 34.0873 102.787 33.834 101.728 33.834C100.691 33.834 99.7469 34.0873 98.9176 34.5711C98.0884 35.0548 97.4434 35.7228 96.9827 36.5981C96.522 37.4734 96.2917 38.4639 96.2917 39.5926V39.9151C96.2917 41.0668 96.5451 42.1034 97.0518 42.9787C97.5586 43.854 98.2727 44.545 99.194 45.0287C100.115 45.5125 101.152 45.7658 102.35 45.7658C103.271 45.7658 104.146 45.6046 104.953 45.2821C105.759 44.9596 106.45 44.4529 107.026 43.7618L108.178 45.0978C107.51 45.9041 106.657 46.526 105.644 46.9636C104.584 47.4243 103.478 47.6547 102.258 47.6547Z" fill="#010561" stroke="#010561" stroke-linejoin="round"/>
<path d="M50.4531 71.4493V51.1328H59.2293C61.4867 51.1328 63.2603 51.5935 64.5042 52.4918C65.7481 53.4132 66.37 54.6801 66.37 56.3617C66.37 57.4673 66.1166 58.3887 65.6099 59.1488C65.1031 59.909 64.389 60.4848 63.5137 60.8534C62.6384 61.245 61.671 61.4293 60.6344 61.4293L61.1181 60.7382C62.4081 60.7382 63.5368 60.9455 64.4812 61.3371C65.4256 61.7287 66.1397 62.3276 66.6695 63.1108C67.1992 63.894 67.4526 64.8614 67.4526 66.0362C67.4526 67.7638 66.8077 69.0998 65.5408 70.0442C64.2739 70.9886 62.362 71.4723 59.8052 71.4723H50.4531V71.4493ZM52.6184 69.6756H59.7821C61.5558 69.6756 62.9379 69.3762 63.8823 68.7542C64.8267 68.1553 65.3104 67.1649 65.3104 65.8289C65.3104 64.5159 64.8267 63.5484 63.8823 62.9495C62.9379 62.3506 61.5788 62.0282 59.7821 62.0282H52.365V60.2545H59.0681C60.7035 60.2545 61.9474 59.955 62.8457 59.3331C63.7441 58.7112 64.2048 57.7898 64.2048 56.569C64.2048 55.3251 63.7441 54.4037 62.8457 53.8048C61.9474 53.2059 60.6805 52.8834 59.0681 52.8834H52.5953V69.6756H52.6184Z" fill="#010561" stroke="#010561" stroke-linejoin="round"/>
<path d="M78.2099 71.5874C76.92 71.5874 75.7913 71.3571 74.8238 70.8503C73.8564 70.3666 73.0963 69.6525 72.5665 68.6621C72.0367 67.6946 71.7603 66.4738 71.7603 65.0226V56.1773H73.8103V64.7923C73.8103 66.4277 74.2019 67.6485 75.0081 68.4547C75.8143 69.284 76.943 69.6986 78.3942 69.6986C79.4538 69.6986 80.3752 69.4913 81.1583 69.0536C81.9415 68.616 82.5404 67.9941 82.955 67.1418C83.3697 66.3125 83.577 65.3221 83.577 64.1473V56.1543H85.6271V71.4032H83.6922V67.2339L84.0146 67.9941C83.5309 69.1227 82.7708 69.9981 81.7572 70.62C80.7437 71.288 79.569 71.5874 78.2099 71.5874Z" fill="#010561" stroke="#010561" stroke-linejoin="round"/>
<path d="M89.75 71.4495V70.0904L99.9082 57.2372L100.346 57.9282H89.9343V56.2236H101.981V57.5596L91.8461 70.459L91.3164 69.768H102.166V71.4725H89.75V71.4495Z" fill="#010561" stroke="#010561" stroke-linejoin="round"/>
<path d="M104.584 71.4495V70.0904L114.742 57.2372L115.18 57.9282H104.768V56.2236H116.815V57.5596L106.68 70.459L106.15 69.768H117V71.4725H104.584V71.4495Z" fill="#010561" stroke="#010561" stroke-linejoin="round"/>
</svg>
